<?xml version="1.0" encoding="utf-8"?>
<!-- Generator: Adobe Illustrator 20.0.0, SVG Export Plug-In . SVG Version: 6.00 Build 0)  -->
<svg version="1.1" id="Layer_1" xmlns="http://www.w3.org/2000/svg" xmlns:xlink="http://www.w3.org/1999/xlink" x="0px" y="0px"
	 viewBox="0 0 15 15" style="enable-background:new 0 0 15 15;" xml:space="preserve">
<style type="text/css">
	.st0{fill:#9DA4AB;}
</style>
<g>
	<path class="st0" d="M7.5,10.8c-1.1,0-2.1,0.9-2.1,2.1c0,1.2,0.9,2.1,2.1,2.1s2.1-0.9,2.1-2.1C9.6,11.7,8.7,10.8,7.5,10.8z"/>
	<path class="st0" d="M2.1,0C1,0,0,0.9,0,2.1c0,1.2,0.9,2.1,2.1,2.1c1.2,0,2.1-0.9,2.1-2.1c0,0,0,0,0,0C4.2,1,3.3,0,2.1,0z"/>
	<path class="st0" d="M2.1,10.8C1,10.8,0,11.7,0,12.8c0,1.2,0.9,2.1,2.1,2.1s2.1-0.9,2.1-2.1C4.2,11.7,3.3,10.8,2.1,10.8z"/>
	<path class="st0" d="M2.1,9.7c1.2,0,2.1-0.9,2.1-2.1v0c0,0,0,0,0,0c0-1.2-0.9-2.1-2.1-2.1C0.9,5.5,0,6.4,0,7.5
		C0,8.7,0.9,9.6,2.1,9.7z"/>
	<path class="st0" d="M7.4,9.6c1.2,0,2.1-0.9,2.1-2.1l0,0c0,0,0,0,0,0c0-1.2-0.9-2.1-2.1-2.1c-1.1,0-2.1,0.9-2.1,2.1
		C5.4,8.7,6.3,9.6,7.4,9.6z"/>
	<path class="st0" d="M12.9,9.7C14,9.7,15,8.7,15,7.6v0c0,0,0,0,0,0c0-1.2-0.9-2.1-2.1-2.1c-1.2,0-2.1,0.9-2.1,2.1
		C10.8,8.7,11.7,9.6,12.9,9.7z"/>
	<path class="st0" d="M12.9,0c-1.1,0-2.1,0.9-2.1,2.1c0,1.2,0.9,2.1,2.1,2.1C14,4.2,15,3.3,15,2.1c0,0,0,0,0,0C15,1,14.1,0,12.9,0z"
		/>
	<path class="st0" d="M12.9,10.8c-1.1,0-2.1,0.9-2.1,2.1c0,1.2,0.9,2.1,2.1,2.1S15,14,15,12.9c0,0,0,0,0,0
		C15,11.7,14.1,10.8,12.9,10.8z"/>
	<path class="st0" d="M7.5,0C6.3,0,5.4,0.9,5.4,2.1c0,1.2,0.9,2.1,2.1,2.1c1.2,0,2.1-0.9,2.1-2.1c0,0,0,0,0,0C9.6,1,8.6,0,7.5,0z"/>
</g>
</svg>
