<?xml version="1.0" encoding="utf-8"?>
<!-- Generator: Adobe Illustrator 20.0.0, SVG Export Plug-In . SVG Version: 6.00 Build 0)  -->
<svg version="1.1" id="Layer_1" xmlns="http://www.w3.org/2000/svg" xmlns:xlink="http://www.w3.org/1999/xlink" x="0px" y="0px"
	 viewBox="0 0 24 20" style="enable-background:new 0 0 24 20;" xml:space="preserve">
<style type="text/css">
	.st0{fill:#1E1E1E;}
</style>
<g>
	<path class="st0" d="M10.5,15.5C10.5,15.5,10.5,15.5,10.5,15.5c-1.3,0-2.3,1-2.3,2.2c0,1.2,1,2.2,2.2,2.2c1.2,0,2.3-1,2.3-2.2
		C12.7,16.6,11.7,15.5,10.5,15.5z"/>
	<path class="st0" d="M10.9,5.7C10.9,5.7,10.9,5.7,10.9,5.7h2.5v2.4c0,0.6,0.5,1.1,1.1,1.1c0.6,0,1.1-0.5,1.1-1.1V5.7h2.5
		c0.6,0,1.1-0.5,1.1-1.1c0-0.6-0.5-1.1-1.1-1.1h-2.5V1.1c0-0.6-0.5-1.1-1.1-1.1c-0.6,0-1.1,0.5-1.1,1.1v2.4h-2.4
		c-0.6,0-1.1,0.5-1.1,1.1C9.8,5.2,10.3,5.7,10.9,5.7z"/>
	<path class="st0" d="M19.4,15.5c-1.3,0-2.3,1-2.3,2.2c0,1.2,1,2.2,2.2,2.2c1.2,0,2.3-1,2.3-2.2C21.6,16.6,20.6,15.5,19.4,15.5z"/>
	<path class="st0" d="M23.2,3.6C23.2,3.6,23.2,3.6,23.2,3.6L23.2,3.6c-0.6-0.2-1.2,0.1-1.4,0.7l-1.1,3.2h-3.3v0.6
		c0,1.6-1.3,2.9-2.9,2.9c-1.6,0-2.9-1.3-2.9-2.9V7.5H8.2L5.8,2c-0.2-0.4-0.6-0.7-1-0.7H1.1C0.5,1.3,0,1.8,0,2.4c0,0,0,0,0,0
		C0,3,0.5,3.5,1.1,3.5c0,0,0,0,0,0h3l4.3,9.9c0.2,0.4,0.6,0.7,1,0.7h10.8c0.5,0,0.9-0.3,1.1-0.7l2.8-8.4C24.1,4.4,23.8,3.8,23.2,3.6
		z"/>
</g>
</svg>
