<?xml version="1.0" encoding="utf-8"?>
<!-- Generator: Adobe Illustrator 20.0.0, SVG Export Plug-In . SVG Version: 6.00 Build 0)  -->
<svg version="1.1" id="Layer_1" xmlns="http://www.w3.org/2000/svg" xmlns:xlink="http://www.w3.org/1999/xlink" x="0px" y="0px"
	 viewBox="0 0 18 17" style="enable-background:new 0 0 18 17;" xml:space="preserve">
<style type="text/css">
	.st0{fill:#1E1E1E;}
</style>
<path class="st0" d="M18,6.5c0-0.1-0.1-0.2-0.3-0.2l-5.8-0.8L9.3,0.2C9.2,0.1,9.1,0,9,0v0C8.9,0,8.8,0.1,8.7,0.2L6.1,5.4L0.3,6.2
	C0.2,6.3,0.1,6.4,0,6.5c0,0.1,0,0.2,0.1,0.3l4.2,4.1l-1,5.8c0,0.1,0,0.2,0.1,0.3C3.5,17,3.6,17,3.6,17c0.1,0,0.1,0,0.2,0L9,14.2
	l5.2,2.7c0,0,0.1,0,0.2,0c0.1,0,0.1,0,0.2-0.1c0.1-0.1,0.1-0.2,0.1-0.3l-1-5.8l4.2-4.1C18,6.7,18,6.6,18,6.5z M12.3,9.5l-0.7,0.7
	l0.2,1l0.4,2.6l-2.3-1.2L9,12.1l-0.9,0.5l-2.3,1.2l0.4-2.6l0.2-1L5.7,9.5L3.8,7.7l2.6-0.4l1-0.1l0.4-0.9L9,3.9v0l1.2,2.3l0.4,0.9
	l1,0.1l2.6,0.4L12.3,9.5z"/>
</svg>
