<?xml version="1.0" encoding="utf-8"?>
<!-- Generator: Adobe Illustrator 20.0.0, SVG Export Plug-In . SVG Version: 6.00 Build 0)  -->
<svg version="1.1" id="Layer_1" xmlns="http://www.w3.org/2000/svg" xmlns:xlink="http://www.w3.org/1999/xlink" x="0px" y="0px"
	 viewBox="0 0 21 21" style="enable-background:new 0 0 21 21;" xml:space="preserve">
<style type="text/css">
	.st0{fill:#1E1E1E;}
</style>
<g>
	<path class="st0" d="M3.9,15L2.2,16c0.6,0.9,1.4,1.8,2.2,2.4l1.2-1.6C5,16.4,4.4,15.7,3.9,15z"/>
	<path class="st0" d="M6.4,19.7c1,0.5,2.1,0.8,3.2,0.8l0.2-2c-0.9-0.1-1.8-0.3-2.6-0.7L6.4,19.7z"/>
	<path class="st0" d="M11.5,18.5l0.2,2c1.1-0.1,2.2-0.5,3.2-1l-0.9-1.8C13.3,18.1,12.4,18.4,11.5,18.5z"/>
	<path class="st0" d="M15.6,16.7L15.6,16.7l1.3,1.6c0.9-0.7,1.6-1.6,2.2-2.5l-1.7-1.1C16.8,15.5,16.3,16.2,15.6,16.7z"/>
	<path class="st0" d="M10.5,0.5c-0.4,0-0.8,0-1.2,0.1c-0.1,0-0.2,0-0.3,0C8.6,0.7,8.3,0.7,8,0.8c-0.1,0-0.1,0-0.2,0
		C7.4,1,7,1.1,6.6,1.3l0,0C5.5,1.7,4.5,2.4,3.6,3.2l0,0c0,0,0,0-0.1,0.1L1.5,1.5l-1,7.3l6.9-2.3L5.1,4.6c0.9-0.9,2-1.5,3.2-1.8
		l0.1,0C8.7,2.7,9,2.6,9.3,2.6c0.1,0,0.2,0,0.2,0c0.3,0,0.7-0.1,1-0.1c4.4,0,8,3.6,8,8.1c0,0.9-0.2,1.7-0.4,2.6l1.9,0.6
		c0.4-1.1,0.5-2.2,0.5-3.3C20.5,5,16,0.5,10.5,0.5z"/>
</g>
</svg>
