<?xml version="1.0" encoding="utf-8"?>
<!-- Generator: Adobe Illustrator 20.0.0, SVG Export Plug-In . SVG Version: 6.00 Build 0)  -->
<svg version="1.1" id="Layer_1" xmlns="http://www.w3.org/2000/svg" xmlns:xlink="http://www.w3.org/1999/xlink" x="0px" y="0px"
	 viewBox="0 0 21 21" style="enable-background:new 0 0 21 21;" xml:space="preserve">
<style type="text/css">
	.st0{fill:#1E1E1E;}
</style>
<g>
	<rect x="0.5" y="3.1" class="st0" width="2.1" height="2.2"/>
	<rect x="0.5" y="0" class="st0" width="2.1" height="2.2"/>
	<path class="st0" d="M13.6,8.7L14,9.8l1.8-5.1L11,7.1l1.1,0.3l-1.7,1.9h-10v0.9v0.9V21h7.7H9h2.5h0V11L13.6,8.7z M9.4,18.8H9H8.2
		H2.6v-7.4h6.8V18.8z"/>
	<rect x="0.5" y="6.1" class="st0" width="2.1" height="2.2"/>
	<rect x="9.4" y="0" class="st0" width="2.1" height="2.2"/>
	<rect x="12.4" y="0" class="st0" width="2.1" height="2.2"/>
	<rect x="3.5" y="0" class="st0" width="2.1" height="2.2"/>
	<rect x="6.5" y="0" class="st0" width="2.1" height="2.2"/>
	<rect x="18.4" y="18.4" class="st0" width="2.1" height="2.6"/>
	<rect x="18.4" y="9.2" class="st0" width="2.1" height="2.2"/>
	<rect x="18.4" y="6.1" class="st0" width="2.1" height="2.2"/>
	<rect x="18.4" y="3.1" class="st0" width="2.1" height="2.2"/>
	<rect x="18.4" y="0" class="st0" width="2.1" height="2.2"/>
	<rect x="15.4" y="18.8" class="st0" width="2.1" height="2.2"/>
	<rect x="15.4" y="0" class="st0" width="2.1" height="2.2"/>
	<rect x="18.4" y="12.2" class="st0" width="2.1" height="2.2"/>
	<rect x="12.4" y="18.8" class="st0" width="2.1" height="2.2"/>
	<rect x="18.4" y="15.3" class="st0" width="2.1" height="2.2"/>
</g>
</svg>
