<svg xmlns="http://www.w3.org/2000/svg" xmlns:xlink="http://www.w3.org/1999/xlink" preserveAspectRatio="xMidYMid" width="20" height="22" viewBox="0 0 20 22">
  <defs>
    <style>
      .cls-1 {
        fill: #fff;
        fill-rule: evenodd;
      }
    </style>
  </defs>
  <path d="M19.623,11.701 L17.778,12.774 L16.550,13.488 L10.359,17.087 C10.130,17.221 9.842,17.221 9.612,17.087 L3.422,13.488 L2.195,12.774 L0.349,11.701 C-0.118,11.429 -0.121,10.774 0.344,10.499 L1.926,9.561 C2.157,9.425 2.446,9.423 2.678,9.558 L5.173,11.009 L6.401,11.722 L9.612,13.590 C9.842,13.723 10.130,13.723 10.359,13.590 L13.571,11.722 L14.798,11.009 L17.294,9.558 C17.526,9.423 17.815,9.424 18.046,9.561 L19.629,10.499 C20.093,10.774 20.090,11.429 19.623,11.701 ZM19.623,6.770 L17.677,7.902 L16.449,8.615 L13.577,10.285 L12.350,10.999 L10.359,12.156 C10.130,12.290 9.842,12.290 9.612,12.156 L7.622,10.999 L6.394,10.285 L3.522,8.615 L2.295,7.902 L0.349,6.770 C-0.119,6.499 -0.122,5.844 0.343,5.568 L9.607,0.080 C9.839,-0.058 10.132,-0.058 10.364,0.080 L19.628,5.568 C20.093,5.843 20.090,6.498 19.623,6.770 ZM0.344,15.311 L1.825,14.433 C2.056,14.297 2.346,14.295 2.577,14.430 L9.612,18.520 C9.842,18.654 10.130,18.654 10.359,18.520 L17.396,14.430 C17.627,14.295 17.917,14.296 18.147,14.433 L19.629,15.311 C20.094,15.586 20.091,16.241 19.624,16.513 L10.360,21.899 C10.130,22.033 9.843,22.033 9.613,21.899 L0.349,16.513 C-0.118,16.241 -0.121,15.586 0.344,15.311 Z" class="cls-1"/>
</svg>
